ffmpeg version 7.1-full_build-www.gyan.dev Copyright (c) 2000-2024 the FFmpeg developers
  built with gcc 14.2.0 (Rev1, Built by MSYS2 project)
  configuration: --enable-gpl --enable-version3 --enable-shared --disable-w32threads --disable-autodetect --enable-fontconfig --enable-iconv --enable-gnutls --enable-libxml2 --enable-gmp --enable-bzlib --enable-lzma --enable-libsnappy --enable-zlib --enable-librist --enable-libsrt --enable-libssh --enable-libzmq --enable-avisynth --enable-libbluray --enable-libcaca --enable-sdl2 --enable-libaribb24 --enable-libaribcaption --enable-libdav1d --enable-libdavs2 --enable-libopenjpeg --enable-libquirc --enable-libuavs3d --enable-libxevd --enable-libzvbi --enable-libqrencode --enable-librav1e --enable-libsvtav1 --enable-libvvenc --enable-libwebp --enable-libx264 --enable-libx265 --enable-libxavs2 --enable-libxeve --enable-libxvid --enable-libaom --enable-libjxl --enable-libvpx --enable-mediafoundation --enable-libass --enable-frei0r --enable-libfreetype --enable-libfribidi --enable-libharfbuzz --enable-liblensfun --enable-libvidstab --enable-libvmaf --enable-libzimg --enable-amf --enable-cuda-llvm --enable-cuvid --enable-dxva2 --enable-d3d11va --enable-d3d12va --enable-ffnvcodec --enable-libvpl --enable-nvdec --enable-nvenc --enable-vaapi --enable-libshaderc --enable-vulkan --enable-libplacebo --enable-opencl --enable-libcdio --enable-libgme --enable-libmodplug --enable-libopenmpt --enable-libopencore-amrwb --enable-libmp3lame --enable-libshine --enable-libtheora --enable-libtwolame --enable-libvo-amrwbenc --enable-libcodec2 --enable-libilbc --enable-libgsm --enable-liblc3 --enable-libopencore-amrnb --enable-libopus --enable-libspeex --enable-libvorbis --enable-ladspa --enable-libbs2b --enable-libflite --enable-libmysofa --enable-librubberband --enable-libsoxr --enable-chromaprint
  libavutil      59. 39.100 / 59. 39.100
  libavcodec     61. 19.100 / 61. 19.100
  libavformat    61.  7.100 / 61.  7.100
  libavdevice    61.  3.100 / 61.  3.100
  libavfilter    10.  4.100 / 10.  4.100
  libswscale      8.  3.100 /  8.  3.100
  libswresample   5.  3.100 /  5.  3.100
  libpostproc    58.  3.100 / 58.  3.100
[mp3 @ 0000021326b9ef40] Estimating duration from bitrate, this may be inaccurate
Input #0, mp3, from 'c:\Users\myzop\Python-Projects\python\Projects\Rizospastis\RizosTTS\temp.mp3':
  Duration: 01:27:54.89, start: 0.000000, bitrate: 64 kb/s
  Stream #0:0: Audio: mp3 (mp3float), 24000 Hz, mono, fltp, 64 kb/s
Stream mapping:
  Stream #0:0 -> #0:0 (mp3 (mp3float) -> mp3 (libmp3lame))
Press [q] to stop, [?] for help
Output #0, mp3, to 'c:\Users\myzop\Python-Projects\python\Projects\Rizospastis\RizosTTS\20250423_Rizospastis.mp3':
  Metadata:
    TSSE            : Lavf61.7.100
  Stream #0:0: Audio: mp3, 24000 Hz, mono, fltp
      Metadata:
        encoder         : Lavc61.19.100 libmp3lame
size=     211KiB time=00:00:53.76 bitrate=  32.1kbits/s speed= 103x    size=     256KiB time=00:01:46.89 bitrate=  19.6kbits/s speed= 104x    size=     512KiB time=00:02:47.59 bitrate=  25.0kbits/s speed= 108x    size=     768KiB time=00:03:52.53 bitrate=  27.1kbits/s speed= 112x    size=    1024KiB time=00:04:56.20 bitrate=  28.3kbits/s speed= 115x    size=    1280KiB time=00:06:03.55 bitrate=  28.8kbits/s speed= 117x    size=    1536KiB time=00:07:09.69 bitrate=  29.3kbits/s speed= 119x    size=    1792KiB time=00:08:15.62 bitrate=  29.6kbits/s speed= 120x    size=    2048KiB time=00:09:23.78 bitrate=  29.8kbits/s speed= 121x    size=    2304KiB time=00:10:29.49 bitrate=  30.0kbits/s speed= 122x    size=    2560KiB time=00:11:36.33 bitrate=  30.1kbits/s speed= 123x    size=    2816KiB time=00:12:37.27 bitrate=  30.5kbits/s speed= 122x    size=    3072KiB time=00:13:44.11 bitrate=  30.5kbits/s speed= 123x    size=    3328KiB time=00:14:47.95 bitrate=  30.7kbits/s speed= 123x    size=    3584KiB time=00:15:55.08 bitrate=  30.7kbits/s speed= 123x    size=    3840KiB time=00:17:00.88 bitrate=  30.8kbits/s speed= 124x    size=    4096KiB time=00:18:05.90 bitrate=  30.9kbits/s speed= 124x    size=    4352KiB time=00:19:10.56 bitrate=  31.0kbits/s speed= 124x    size=    4608KiB time=00:20:16.84 bitrate=  31.0kbits/s speed= 124x    size=    4864KiB time=00:21:08.59 bitrate=  31.4kbits/s speed= 123x    size=    5120KiB time=00:22:03.07 bitrate=  31.7kbits/s speed= 122x    size=    5376KiB time=00:23:07.05 bitrate=  31.8kbits/s speed= 122x    size=    5632KiB time=00:24:10.72 bitrate=  31.8kbits/s speed= 122x    size=    5888KiB time=00:25:15.93 bitrate=  31.8kbits/s speed= 122x    size=    6144KiB time=00:26:21.00 bitrate=  31.8kbits/s speed= 123x    size=    6400KiB time=00:27:25.60 bitrate=  31.9kbits/s speed= 123x    size=    6656KiB time=00:28:32.66 bitrate=  31.8kbits/s speed= 123x    size=    6912KiB time=00:29:38.97 bitrate=  31.8kbits/s speed= 123x    size=    7168KiB time=00:30:41.61 bitrate=  31.9kbits/s speed= 123x    size=    7424KiB time=00:31:46.70 bitrate=  31.9kbits/s speed= 123x    size=    7680KiB time=00:32:53.28 bitrate=  31.9kbits/s speed= 123x    size=    7936KiB time=00:33:58.75 bitrate=  31.9kbits/s speed= 123x    size=    8192KiB time=00:35:05.73 bitrate=  31.9kbits/s speed= 124x    size=    8448KiB time=00:36:10.15 bitrate=  31.9kbits/s speed= 124x    size=    8704KiB time=00:37:17.54 bitrate=  31.9kbits/s speed= 124x    size=    8960KiB time=00:38:23.04 bitrate=  31.9kbits/s speed= 124x    size=    9216KiB time=00:39:32.40 bitrate=  31.8kbits/s speed= 124x    size=    9472KiB time=00:40:32.54 bitrate=  31.9kbits/s speed= 124x    size=    9728KiB time=00:41:37.46 bitrate=  31.9kbits/s speed= 124x    size=    9984KiB time=00:42:46.12 bitrate=  31.9kbits/s speed= 124x    size=   10240KiB time=00:43:49.96 bitrate=  31.9kbits/s speed= 124x    size=   10496KiB time=00:44:55.89 bitrate=  31.9kbits/s speed= 124x    size=   10752KiB time=00:46:01.87 bitrate=  31.9kbits/s speed= 124x    size=   11008KiB time=00:47:07.20 bitrate=  31.9kbits/s speed= 125x    size=   11264KiB time=00:48:12.62 bitrate=  31.9kbits/s speed= 125x    size=   11520KiB time=00:49:18.40 bitrate=  31.9kbits/s speed= 125x    size=   11776KiB time=00:50:21.79 bitrate=  31.9kbits/s speed= 125x    size=   12032KiB time=00:51:24.96 bitrate=  32.0kbits/s speed= 125x    size=   12288KiB time=00:52:29.61 bitrate=  32.0kbits/s speed= 125x    size=   12544KiB time=00:53:38.49 bitrate=  31.9kbits/s speed= 125x    size=   12800KiB time=00:54:42.07 bitrate=  31.9kbits/s speed= 125x    [out#0/mp3 @ 0000021326b84d00] video:0KiB audio:12878KiB subtitle:0KiB other streams:0KiB global headers:0KiB muxing overhead: 0.001790%
size=   12879KiB time=00:54:56.79 bitrate=  32.0kbits/s speed= 125x    
